<svg width="31" height="30" viewBox="0 0 31 30" fill="none" xmlns="http://www.w3.org/2000/svg">
<path d="M15.3333 20.55L20.8083 15.075L19.2333 13.5L16.4583 16.275V9.45H14.2083V16.275L11.4333 13.5L9.85831 15.075L15.3333 20.55ZM15.3333 30C13.2833 30 11.3458 29.6063 9.52081 28.8188C7.69581 28.0313 6.10206 26.9563 4.73956 25.5938C3.37706 24.2313 2.30206 22.6375 1.51456 20.8125C0.727063 18.9875 0.333313 17.05 0.333313 15C0.333313 12.925 0.727063 10.975 1.51456 9.15C2.30206 7.325 3.37706 5.7375 4.73956 4.3875C6.10206 3.0375 7.69581 1.96875 9.52081 1.18125C11.3458 0.39375 13.2833 0 15.3333 0C17.4083 0 19.3583 0.39375 21.1833 1.18125C23.0083 1.96875 24.5958 3.0375 25.9458 4.3875C27.2958 5.7375 28.3646 7.325 29.1521 9.15C29.9396 10.975 30.3333 12.925 30.3333 15C30.3333 17.05 29.9396 18.9875 29.1521 20.8125C28.3646 22.6375 27.2958 24.2313 25.9458 25.5938C24.5958 26.9563 23.0083 28.0313 21.1833 28.8188C19.3583 29.6063 17.4083 30 15.3333 30ZM15.3333 27.75C18.8833 27.75 21.8958 26.5063 24.3708 24.0188C26.8458 21.5313 28.0833 18.525 28.0833 15C28.0833 11.45 26.8458 8.4375 24.3708 5.9625C21.8958 3.4875 18.8833 2.25 15.3333 2.25C11.8083 2.25 8.80206 3.4875 6.31456 5.9625C3.82706 8.4375 2.58331 11.45 2.58331 15C2.58331 18.525 3.82706 21.5313 6.31456 24.0188C8.80206 26.5063 11.8083 27.75 15.3333 27.75Z" fill="white"/>
</svg>
