<svg width="33" height="30" viewBox="0 0 33 30" fill="none" xmlns="http://www.w3.org/2000/svg">
<path d="M4.5 30V14.9625L1.35 17.3625L0 15.5625L4.5 12.15V7.875H6.75V10.425L16.5 3L33 15.6L31.65 17.3625L28.5 14.9625V30H4.5ZM6.75 27.75H15.375V21.75H17.625V27.75H26.25V13.2375L16.5 5.8125L6.75 13.2375V27.75ZM4.5 6C4.5 4.85 4.90625 3.875 5.71875 3.075C6.53125 2.275 7.5 1.875 8.625 1.875C9.15625 1.875 9.60156 1.6875 9.96094 1.3125C10.3203 0.9375 10.5 0.5 10.5 0H12.75C12.75 1.125 12.349 2.09375 11.5469 2.90625C10.7448 3.71875 9.77083 4.125 8.625 4.125C8.125 4.125 7.6875 4.30469 7.3125 4.66406C6.9375 5.02344 6.75 5.46875 6.75 6H4.5Z" fill="white"/>
</svg>
