<svg width="31" height="30" viewBox="0 0 31 30" fill="none" xmlns="http://www.w3.org/2000/svg">
<path d="M7.08331 18.75V21H2.58331C1.96456 21 1.43488 20.7797 0.994251 20.3391C0.553625 19.8984 0.333313 19.3688 0.333313 18.75V2.25C0.333313 1.63125 0.553625 1.10156 0.994251 0.660938C1.43488 0.220313 1.96456 0 2.58331 0H19.0833C19.7021 0 20.2318 0.220313 20.6724 0.660938C21.113 1.10156 21.3333 1.63125 21.3333 2.25V6.75H19.0833V2.25H2.58331V18.75H7.08331ZM11.5833 30C10.9646 30 10.4349 29.7797 9.99425 29.3391C9.55363 28.8984 9.33331 28.3688 9.33331 27.75V11.25C9.33331 10.6313 9.55363 10.1016 9.99425 9.66094C10.4349 9.22031 10.9646 9 11.5833 9H28.0833C28.7021 9 29.2318 9.22031 29.6724 9.66094C30.113 10.1016 30.3333 10.6313 30.3333 11.25V27.75C30.3333 28.3688 30.113 28.8984 29.6724 29.3391C29.2318 29.7797 28.7021 30 28.0833 30H11.5833ZM11.5833 27.75H28.0833V11.25H11.5833V27.75Z" fill="white"/>
</svg>
