<svg width="390" height="149" viewBox="0 0 390 149" fill="none" xmlns="http://www.w3.org/2000/svg">
<g filter="url(#filter0_bi_17_436)">
<mask id="path-1-inside-1_17_436" fill="white">
<path fill-rule="evenodd" clip-rule="evenodd" d="M195 104C213.778 104 229 88.7777 229 70C229 66.1504 228.36 62.4502 227.181 59H390V99C390 126.614 367.614 149 340 149H50C22.3858 149 0 126.614 0 99V59H162.819C161.64 62.4502 161 66.1504 161 70C161 88.7777 176.222 104 195 104Z"/>
</mask>
<path fill-rule="evenodd" clip-rule="evenodd" d="M195 104C213.778 104 229 88.7777 229 70C229 66.1504 228.36 62.4502 227.181 59H390V99C390 126.614 367.614 149 340 149H50C22.3858 149 0 126.614 0 99V59H162.819C161.64 62.4502 161 66.1504 161 70C161 88.7777 176.222 104 195 104Z" fill="white" fill-opacity="0.15" style="mix-blend-mode:overlay"/>
<path d="M227.181 59V58H225.783L226.235 59.3234L227.181 59ZM390 59H391V58H390V59ZM0 59V58H-1V59H0ZM162.819 59L163.765 59.3234L164.217 58H162.819V59ZM228 70C228 88.2254 213.225 103 195 103V105C214.33 105 230 89.33 230 70H228ZM226.235 59.3234C227.379 62.6709 228 66.2619 228 70H230C230 66.0389 229.342 62.2296 228.127 58.6766L226.235 59.3234ZM227.181 60H390V58H227.181V60ZM389 59V99H391V59H389ZM389 99C389 126.062 367.062 148 340 148V150C368.167 150 391 127.167 391 99H389ZM340 148H50V150H340V148ZM50 148C22.938 148 1 126.062 1 99H-1C-1 127.167 21.8335 150 50 150V148ZM1 99V59H-1V99H1ZM0 60H162.819V58H0V60ZM162 70C162 66.2619 162.621 62.6709 163.765 59.3234L161.873 58.6766C160.658 62.2296 160 66.0389 160 70H162ZM195 103C176.775 103 162 88.2254 162 70H160C160 89.33 175.67 105 195 105V103Z" fill="url(#paint0_linear_17_436)" style="mix-blend-mode:overlay" mask="url(#path-1-inside-1_17_436)"/>
</g>
<g filter="url(#filter1_f_17_436)">
<circle cx="195" cy="70" r="30" fill="url(#paint1_linear_17_436)" fill-opacity="0.5"/>
</g>
<g filter="url(#filter2_bi_17_436)">
<circle cx="195" cy="70" r="30" fill="white" fill-opacity="0.15" style="mix-blend-mode:overlay"/>
<circle cx="195" cy="70" r="28.5" stroke="url(#paint2_linear_17_436)" stroke-width="3"/>
</g>
<defs>
<filter id="filter0_bi_17_436" x="-40" y="19" width="470" height="170" filterUnits="userSpaceOnUse" color-interpolation-filters="sRGB">
<feFlood flood-opacity="0" result="BackgroundImageFix"/>
<feGaussianBlur in="BackgroundImageFix" stdDeviation="20"/>
<feComposite in2="SourceAlpha" operator="in" result="effect1_backgroundBlur_17_436"/>
<feBlend mode="normal" in="SourceGraphic" in2="effect1_backgroundBlur_17_436" result="shape"/>
<feColorMatrix in="SourceAlpha" type="matrix" values="0 0 0 0 0 0 0 0 0 0 0 0 0 0 0 0 0 0 127 0" result="hardAlpha"/>
<feOffset dy="1"/>
<feGaussianBlur stdDeviation="0.5"/>
<feComposite in2="hardAlpha" operator="arithmetic" k2="-1" k3="1"/>
<feColorMatrix type="matrix" values="0 0 0 0 1 0 0 0 0 1 0 0 0 0 1 0 0 0 0.5 0"/>
<feBlend mode="overlay" in2="shape" result="effect2_innerShadow_17_436"/>
</filter>
<filter id="filter1_f_17_436" x="125" y="0" width="140" height="140" filterUnits="userSpaceOnUse" color-interpolation-filters="sRGB">
<feFlood flood-opacity="0" result="BackgroundImageFix"/>
<feBlend mode="normal" in="SourceGraphic" in2="BackgroundImageFix" result="shape"/>
<feGaussianBlur stdDeviation="20" result="effect1_foregroundBlur_17_436"/>
</filter>
<filter id="filter2_bi_17_436" x="125" y="0" width="140" height="140" filterUnits="userSpaceOnUse" color-interpolation-filters="sRGB">
<feFlood flood-opacity="0" result="BackgroundImageFix"/>
<feGaussianBlur in="BackgroundImageFix" stdDeviation="20"/>
<feComposite in2="SourceAlpha" operator="in" result="effect1_backgroundBlur_17_436"/>
<feBlend mode="normal" in="SourceGraphic" in2="effect1_backgroundBlur_17_436" result="shape"/>
<feColorMatrix in="SourceAlpha" type="matrix" values="0 0 0 0 0 0 0 0 0 0 0 0 0 0 0 0 0 0 127 0" result="hardAlpha"/>
<feOffset dy="1"/>
<feGaussianBlur stdDeviation="0.5"/>
<feComposite in2="hardAlpha" operator="arithmetic" k2="-1" k3="1"/>
<feColorMatrix type="matrix" values="0 0 0 0 1 0 0 0 0 1 0 0 0 0 1 0 0 0 0.5 0"/>
<feBlend mode="overlay" in2="shape" result="effect2_innerShadow_17_436"/>
</filter>
<linearGradient id="paint0_linear_17_436" x1="195" y1="59" x2="195" y2="149" gradientUnits="userSpaceOnUse">
<stop stop-color="white" stop-opacity="0.15"/>
<stop offset="1" stop-color="white" stop-opacity="0"/>
</linearGradient>
<linearGradient id="paint1_linear_17_436" x1="174.5" y1="48.5" x2="211.5" y2="95" gradientUnits="userSpaceOnUse">
<stop stop-color="#FE53BB"/>
<stop offset="1" stop-color="#09FBD3"/>
</linearGradient>
<linearGradient id="paint2_linear_17_436" x1="176.5" y1="40" x2="210" y2="100" gradientUnits="userSpaceOnUse">
<stop stop-color="#FE53BB"/>
<stop offset="1" stop-color="#09FBD3"/>
</linearGradient>
</defs>
</svg>
